<?xml version="1.0" standalone="no"?>
<!DOCTYPE svg PUBLIC "-//W3C//DTD SVG 20010904//EN"
 "http://www.w3.org/TR/2001/REC-SVG-20010904/DTD/svg10.dtd">
<svg version="1.0" xmlns="http://www.w3.org/2000/svg"
 width="700.000000pt" height="700.000000pt" viewBox="0 0 700.000000 700.000000"
 preserveAspectRatio="xMidYMid meet">
<metadata>
Created by potrace 1.11, written by Peter Selinger 2001-2013
</metadata>
<g transform="translate(0.000000,700.000000) scale(0.100000,-0.100000)"
fill="#000000" stroke="none">
<path d="M3461 6578 c-94 -26 -219 -135 -437 -379 -91 -103 -234 -310 -292
-424 -65 -128 -84 -208 -87 -370 -4 -209 26 -361 155 -775 75 -240 100 -347
105 -450 4 -74 -3 -105 -30 -134 -43 -47 -108 -14 -189 96 -232 312 -448 488
-701 571 -139 46 -204 57 -350 61 -409 12 -738 -199 -899 -576 -73 -169 -105
-409 -83 -623 7 -63 11 -89 31 -175 44 -193 190 -471 327 -623 114 -126 300
-247 379 -247 76 0 95 41 68 150 -61 248 -30 439 96 572 93 99 197 139 346
133 367 -15 698 -293 796 -669 22 -83 24 -97 28 -205 13 -344 -215 -543 -635
-555 -63 -2 -122 -6 -132 -11 -77 -33 -62 -258 27 -410 86 -146 250 -227 461
-227 232 0 380 82 543 301 73 98 100 123 123 111 9 -5 19 -20 21 -34 7 -35
-39 -162 -115 -316 -88 -179 -93 -240 -30 -390 88 -213 342 -504 488 -560 115
-44 469 345 560 615 9 28 17 82 18 120 1 67 -1 76 -65 205 -109 222 -138 312
-112 349 24 34 57 11 124 -84 115 -165 240 -261 390 -300 61 -16 217 -23 280
-12 251 42 419 241 422 496 0 65 -17 120 -43 136 -6 4 -65 9 -132 11 -151 5
-220 17 -320 56 -217 84 -327 252 -322 494 8 339 213 662 509 799 101 46 128
55 251 75 375 62 620 -260 513 -675 -27 -103 -24 -144 12 -163 97 -51 332 102
505 328 143 188 252 449 281 680 11 82 8 296 -5 365 -18 98 -20 105 -36 164
-68 241 -210 436 -410 562 -68 43 -206 97 -295 115 -88 18 -251 23 -355 12
-309 -33 -619 -224 -850 -523 -119 -154 -154 -192 -189 -209 -31 -14 -40 -15
-63 -4 -74 36 -62 224 33 538 15 47 27 90 28 95 2 6 19 62 39 125 46 147 93
335 106 425 16 113 6 317 -19 405 -46 160 -166 354 -366 590 -183 216 -346
353 -444 373 -14 2 -40 0 -59 -5z"/>
</g>
</svg>
